<?xml version="1.0" standalone="no"?>
<!DOCTYPE svg PUBLIC "-//W3C//DTD SVG 20010904//EN"
 "http://www.w3.org/TR/2001/REC-SVG-20010904/DTD/svg10.dtd">
<svg version="1.0" xmlns="http://www.w3.org/2000/svg"
 width="300.000000pt" height="300.000000pt" viewBox="0 0 300.000000 300.000000"
 preserveAspectRatio="xMidYMid meet">
<metadata>
Created by potrace 1.11, written by Peter Selinger 2001-2013
</metadata>
<g transform="translate(0.000000,300.000000) scale(0.100000,-0.100000)"
fill="#000000" stroke="none">
<path d="M2889 2506 c-2 -3 -22 -7 -44 -9 -50 -7 -71 -11 -131 -32 -65 -21
-184 -78 -184 -87 0 -5 -5 -8 -12 -8 -12 0 -109 -63 -142 -92 -11 -10 -23 -18
-27 -18 -7 0 -137 -97 -169 -126 -40 -37 -157 -155 -173 -176 -10 -12 -29 -36
-43 -53 -59 -71 -146 -239 -204 -395 -68 -180 -102 -240 -184 -322 -64 -64
-199 -147 -245 -151 -12 -1 -21 -5 -21 -9 0 -4 -22 -10 -50 -14 -27 -4 -50 -9
-50 -13 0 -20 327 -17 361 4 7 5 10 4 6 -2 -4 -6 17 -2 46 9 28 11 59 21 67
23 26 5 155 68 158 77 2 4 9 8 16 8 17 0 62 36 142 115 93 92 117 128 185 280
5 11 22 70 39 130 45 160 73 249 82 260 4 5 8 15 8 22 0 15 5 22 51 73 l31 35
-25 -45 c-24 -44 -44 -97 -51 -137 -5 -23 -26 -101 -34 -123 -2 -8 -6 -22 -7
-30 -1 -8 -10 -42 -19 -75 -10 -33 -19 -64 -21 -70 -1 -5 -4 -17 -7 -25 -3 -8
-14 -37 -23 -65 -10 -27 -27 -66 -38 -85 -36 -63 -142 -199 -154 -200 -7 0
-13 -5 -13 -11 0 -26 -158 -149 -247 -193 -71 -35 -99 -44 -203 -62 -56 -10
-238 -10 -305 -1 -102 14 -164 18 -305 17 -154 0 -201 -3 -218 -14 -6 -3 -13
-2 -17 4 -4 6 -12 7 -18 3 -12 -8 -15 -8 -82 -18 -72 -10 -96 -15 -174 -42
-130 -44 -310 -134 -333 -167 -15 -22 6 -26 35 -7 56 35 234 114 252 111 3 0
19 7 36 16 17 8 33 13 36 10 3 -2 17 0 32 6 47 18 132 31 211 32 30 1 58 6 62
11 5 6 8 6 8 -1 0 -6 10 -10 22 -9 28 2 119 -17 178 -38 25 -9 57 -18 72 -21
15 -2 31 -7 36 -10 5 -3 24 -8 43 -11 19 -3 54 -11 79 -17 151 -35 428 -41
550 -13 14 4 38 9 53 11 16 3 49 14 73 24 24 11 45 19 47 19 21 -4 181 91 244
144 105 90 181 173 290 322 63 86 203 402 186 419 -4 3 -2 6 4 6 5 0 10 6 11
13 2 26 13 83 21 107 4 14 7 33 5 43 -1 9 1 17 4 17 4 0 7 19 6 43 0 23 1 46
4 51 2 4 6 27 8 50 6 71 33 174 68 264 27 69 55 118 98 173 15 20 28 40 28 43
0 7 -15 8 -21 2z"/>
</g>
</svg>
